<?xml version="1.0" encoding="UTF-8" standalone="no"?>
<svg width="24px" height="120px" viewBox="0 0 24 120" version="1.1" xmlns="http://www.w3.org/2000/svg" xmlns:xlink="http://www.w3.org/1999/xlink">
    <title>Git</title>
    <description>Git Logo by Jason Long is licensed under the Creative Commons Attribution 3.0 Unported License.</description>
    <g id="Page 1" stroke="none" stroke-width="1" fill="none" fill-rule="evenodd">
        <path d="M12.8018767,3.34063813 C12.3493902,2.88795577 11.6154219,2.88795577 11.1625436,3.34063813 L9.53085001,4.97272353 L11.6007308,7.04280016 C12.0818159,6.88021844 12.6334185,6.98932449 13.0167588,7.37286064 C13.4024496,7.75874737 13.5105763,8.31505108 13.343881,8.7978992 L15.3391309,10.7929532 C15.821979,10.6264538 16.3786745,10.7341887 16.7641695,11.1202713 C17.3028438,11.6589457 17.3028438,12.5317941 16.7641695,13.0706643 C16.2251033,13.6097304 15.352255,13.6097304 14.8129929,13.0706643 C14.4079098,12.6651894 14.3076184,12.0697094 14.5130982,11.5706031 L12.6522231,9.70992388 L12.6522231,14.606376 C12.7834638,14.6714086 12.9074568,14.7579883 13.0167588,14.8670944 C13.5554331,15.4057687 13.5554331,16.2786171 13.0167588,16.818075 C12.4780844,17.3565535 11.6046484,17.3565535 11.0663658,16.818075 C10.5276914,16.2786171 10.5276914,15.4057687 11.0663658,14.8670944 C11.1995653,14.7340908 11.3537241,14.6334076 11.5182646,14.5660244 L11.5182646,9.62412774 C11.3537241,9.55674448 11.199957,9.45704075 11.0663658,9.32305774 C10.6583444,8.91523227 10.5602078,8.31622637 10.7694093,7.81516127 L8.7287149,5.77427099 L3.34001239,11.1623859 C2.88733003,11.61546 2.88733003,12.3494283 3.34001239,12.8021106 L11.1989776,20.6604882 C11.6514641,21.1131706 12.3852365,21.1131706 12.8383106,20.6604882 L20.6602543,12.8385446 C21.1131325,12.3860581 21.1131325,11.6516981 20.6604501,11.1990157 L12.8018767,3.34063813 Z M12.8018767,3.34063813" id="Git Error" fill="#BBBBBB"></path>
        <path d="M12.8018767,27.3406381 C12.3493902,26.8879558 11.6154219,26.8879558 11.1625436,27.3406381 L9.53085001,28.9727235 L11.6007308,31.0428002 C12.0818159,30.8802184 12.6334185,30.9893245 13.0167588,31.3728606 C13.4024496,31.7587474 13.5105763,32.3150511 13.343881,32.7978992 L15.3391309,34.7929532 C15.821979,34.6264538 16.3786745,34.7341887 16.7641695,35.1202713 C17.3028438,35.6589457 17.3028438,36.5317941 16.7641695,37.0706643 C16.2251033,37.6097304 15.352255,37.6097304 14.8129929,37.0706643 C14.4079098,36.6651894 14.3076184,36.0697094 14.5130982,35.5706031 L12.6522231,33.7099239 L12.6522231,38.606376 C12.7834638,38.6714086 12.9074568,38.7579883 13.0167588,38.8670944 C13.5554331,39.4057687 13.5554331,40.2786171 13.0167588,40.818075 C12.4780844,41.3565535 11.6046484,41.3565535 11.0663658,40.818075 C10.5276914,40.2786171 10.5276914,39.4057687 11.0663658,38.8670944 C11.1995653,38.7340908 11.3537241,38.6334076 11.5182646,38.5660244 L11.5182646,33.6241277 C11.3537241,33.5567445 11.199957,33.4570407 11.0663658,33.3230577 C10.6583444,32.9152323 10.5602078,32.3162264 10.7694093,31.8151613 L8.7287149,29.774271 L3.34001239,35.1623859 C2.88733003,35.61546 2.88733003,36.3494283 3.34001239,36.8021106 L11.1989776,44.6604882 C11.6514641,45.1131706 12.3852365,45.1131706 12.8383106,44.6604882 L20.6602543,36.8385446 C21.1131325,36.3860581 21.1131325,35.6516981 20.6604501,35.1990157 L12.8018767,27.3406381 Z M12.8018767,27.3406381" id="Git Warning" fill="#78B2F2"></path>
        <path d="M12.8018767,51.3406381 C12.3493902,50.8879558 11.6154219,50.8879558 11.1625436,51.3406381 L9.53085001,52.9727235 L11.6007308,55.0428002 C12.0818159,54.8802184 12.6334185,54.9893245 13.0167588,55.3728606 C13.4024496,55.7587474 13.5105763,56.3150511 13.343881,56.7978992 L15.3391309,58.7929532 C15.821979,58.6264538 16.3786745,58.7341887 16.7641695,59.1202713 C17.3028438,59.6589457 17.3028438,60.5317941 16.7641695,61.0706643 C16.2251033,61.6097304 15.352255,61.6097304 14.8129929,61.0706643 C14.4079098,60.6651894 14.3076184,60.0697094 14.5130982,59.5706031 L12.6522231,57.7099239 L12.6522231,62.606376 C12.7834638,62.6714086 12.9074568,62.7579883 13.0167588,62.8670944 C13.5554331,63.4057687 13.5554331,64.2786171 13.0167588,64.818075 C12.4780844,65.3565535 11.6046484,65.3565535 11.0663658,64.818075 C10.5276914,64.2786171 10.5276914,63.4057687 11.0663658,62.8670944 C11.1995653,62.7340908 11.3537241,62.6334076 11.5182646,62.5660244 L11.5182646,57.6241277 C11.3537241,57.5567445 11.199957,57.4570407 11.0663658,57.3230577 C10.6583444,56.9152323 10.5602078,56.3162264 10.7694093,55.8151613 L8.7287149,53.774271 L3.34001239,59.1623859 C2.88733003,59.61546 2.88733003,60.3494283 3.34001239,60.8021106 L11.1989776,68.6604882 C11.6514641,69.1131706 12.3852365,69.1131706 12.8383106,68.6604882 L20.6602543,60.8385446 C21.1131325,60.3860581 21.1131325,59.6516981 20.6604501,59.1990157 L12.8018767,51.3406381 Z M12.8018767,51.3406381" id="Git Ok" fill="#94CD47"></path>
        <path d="M12.8018767,75.3406381 C12.3493902,74.8879558 11.6154219,74.8879558 11.1625436,75.3406381 L9.53085001,76.9727235 L11.6007308,79.0428002 C12.0818159,78.8802184 12.6334185,78.9893245 13.0167588,79.3728606 C13.4024496,79.7587474 13.5105763,80.3150511 13.343881,80.7978992 L15.3391309,82.7929532 C15.821979,82.6264538 16.3786745,82.7341887 16.7641695,83.1202713 C17.3028438,83.6589457 17.3028438,84.5317941 16.7641695,85.0706643 C16.2251033,85.6097304 15.352255,85.6097304 14.8129929,85.0706643 C14.4079098,84.6651894 14.3076184,84.0697094 14.5130982,83.5706031 L12.6522231,81.7099239 L12.6522231,86.606376 C12.7834638,86.6714086 12.9074568,86.7579883 13.0167588,86.8670944 C13.5554331,87.4057687 13.5554331,88.2786171 13.0167588,88.818075 C12.4780844,89.3565535 11.6046484,89.3565535 11.0663658,88.818075 C10.5276914,88.2786171 10.5276914,87.4057687 11.0663658,86.8670944 C11.1995653,86.7340908 11.3537241,86.6334076 11.5182646,86.5660244 L11.5182646,81.6241277 C11.3537241,81.5567445 11.199957,81.4570407 11.0663658,81.3230577 C10.6583444,80.9152323 10.5602078,80.3162264 10.7694093,79.8151613 L8.7287149,77.774271 L3.34001239,83.1623859 C2.88733003,83.61546 2.88733003,84.3494283 3.34001239,84.8021106 L11.1989776,92.6604882 C11.6514641,93.1131706 12.3852365,93.1131706 12.8383106,92.6604882 L20.6602543,84.8385446 C21.1131325,84.3860581 21.1131325,83.6516981 20.6604501,83.1990157 L12.8018767,75.3406381 Z M12.8018767,75.3406381" id="Git On" fill="#E3B551"></path>
        <path d="M12.8018767,99.3406381 C12.3493902,98.8879558 11.6154219,98.8879558 11.1625436,99.3406381 L9.53085001,100.972724 L11.6007308,103.0428 C12.0818159,102.880218 12.6334185,102.989324 13.0167588,103.372861 C13.4024496,103.758747 13.5105763,104.315051 13.343881,104.797899 L15.3391309,106.792953 C15.821979,106.626454 16.3786745,106.734189 16.7641695,107.120271 C17.3028438,107.658946 17.3028438,108.531794 16.7641695,109.070664 C16.2251033,109.60973 15.352255,109.60973 14.8129929,109.070664 C14.4079098,108.665189 14.3076184,108.069709 14.5130982,107.570603 L12.6522231,105.709924 L12.6522231,110.606376 C12.7834638,110.671409 12.9074568,110.757988 13.0167588,110.867094 C13.5554331,111.405769 13.5554331,112.278617 13.0167588,112.818075 C12.4780844,113.356553 11.6046484,113.356553 11.0663658,112.818075 C10.5276914,112.278617 10.5276914,111.405769 11.0663658,110.867094 C11.1995653,110.734091 11.3537241,110.633408 11.5182646,110.566024 L11.5182646,105.624128 C11.3537241,105.556744 11.199957,105.457041 11.0663658,105.323058 C10.6583444,104.915232 10.5602078,104.316226 10.7694093,103.815161 L8.7287149,101.774271 L3.34001239,107.162386 C2.88733003,107.61546 2.88733003,108.349428 3.34001239,108.802111 L11.1989776,116.660488 C11.6514641,117.113171 12.3852365,117.113171 12.8383106,116.660488 L20.6602543,108.838545 C21.1131325,108.386058 21.1131325,107.651698 20.6604501,107.199016 L12.8018767,99.3406381 Z M12.8018767,99.3406381" id="Git" fill="#F74687"></path>
    </g>
</svg>
