<?xml version="1.0" encoding="utf-8"?>
<!-- Generator: Adobe Illustrator 17.1.0, SVG Export Plug-In . SVG Version: 6.00 Build 0)  -->
<!DOCTYPE svg PUBLIC "-//W3C//DTD SVG 1.1//EN" "http://www.w3.org/Graphics/SVG/1.1/DTD/svg11.dtd">
<svg version="1.1" id="Layer_1" xmlns="http://www.w3.org/2000/svg" xmlns:xlink="http://www.w3.org/1999/xlink" x="0px" y="0px"
	 viewBox="208 0 194.7 982.9" enable-background="new 208 0 194.7 982.9" xml:space="preserve">
<path fill="#454545" d="M348.3,74.9c1.4,2.8,1.4,4.2-1.4,5.5l-37.5,40.2c-1.4,0-2.8,1.4-4.2,1.4c-1.4,0-2.8-1.4-4.2-1.4l-38.8-40.2
	c-1.4-1.4-1.4-2.8-1.4-5.5c1.4-2.8,2.8-2.8,5.5-2.8h22.2V33.3c0-1.4,0-2.8,1.4-2.8c1.4-1.4,2.8-2.8,4.2-2.8h22.2
	c1.4,0,2.8,0,4.2,1.4c1.4,1.4,1.4,2.8,1.4,2.8v38.8h22.2C346.9,72.1,348.3,72.1,348.3,74.9 M377.4,124.8v27.7c0,1.4-1.4,4.2-2.8,5.5
	c-1.4,1.4-2.8,2.8-5.5,2.8H241.5c-2.8,0-4.2-1.4-5.5-2.8s-2.8-4.2-2.8-5.5v-27.7c0-1.4,1.4-4.2,2.8-5.5c1.4-1.4,2.8-2.8,5.5-2.8
	h40.2l11.1,12.5c2.8,2.8,6.9,4.2,12.5,4.2c4.2,0,8.3-1.4,11.1-4.2l11.1-12.5h40.2c2.8,0,4.2,1.4,5.5,2.8
	C376,120.7,377.4,122.1,377.4,124.8z M364.9,147c1.4-1.4,1.4-1.4,1.4-2.8c0-1.4-1.4-2.8-1.4-4.2c-1.4-1.4-2.8-1.4-4.2-1.4
	c-1.4,0-2.8,1.4-4.2,1.4c-1.4,1.4-1.4,2.8-1.4,4.2c0,1.4,1.4,2.8,1.4,2.8c1.4,1.4,2.8,1.4,4.2,1.4
	C362.2,149.8,363.6,149.8,364.9,147z M342.8,147c1.4-1.4,1.4-1.4,1.4-2.8c0-1.4,0-2.8-1.4-4.2c-1.4-1.4-2.8-1.4-4.2-1.4
	c-1.4,0-2.8,1.4-2.8,1.4c-1.4,1.4-1.4,2.8-1.4,4.2c0,1.4,0,2.8,1.4,2.8c1.4,1.4,2.8,1.4,2.8,1.4C340,149.8,341.4,149.8,342.8,147z"
	/>
<path fill="#454545" d="M348.3,263.5c-1.4,2.8-2.8,4.2-5.5,4.2H322v38.8c0,1.4-1.4,2.8-1.4,4.2c-1.4,1.4-2.8,1.4-4.2,1.4h-22.2
	c-1.4,0-2.8-1.4-2.8-1.4c-1.4-1.4-1.4-2.8-1.4-4.2v-38.8h-23.6c-2.8,0-4.2-1.4-5.5-4.2c-1.4-1.4-1.4-4.2,1.4-5.5l38.8-38.8
	c1.4-1.4,2.8-1.4,4.2-1.4c1.4,0,2.8,0,2.8,1.4l38.8,38.8C349.7,259.4,351.1,262.2,348.3,263.5 M377.4,320.4v27.7
	c0,2.8-1.4,4.2-2.8,5.5c-1.4,1.4-2.8,2.8-5.5,2.8H241.5c-2.8,0-4.2-1.4-5.5-2.8s-2.8-2.8-2.8-5.5v-27.7c0-2.8,1.4-4.2,2.8-5.5
	c1.4-1.4,2.8-2.8,5.5-2.8h36.1c2.8,2.8,4.2,5.5,6.9,6.9c2.8,2.8,5.5,2.8,9.7,2.8h22.2c2.8,0,6.9-1.4,9.7-2.8
	c2.8-1.4,5.5-4.2,6.9-6.9h36.1c2.8,0,4.2,1.4,5.5,2.8C376,316.2,377.4,317.6,377.4,320.4z M364.9,344c1.4-1.4,1.4-2.8,1.4-4.2
	s-1.4-2.8-1.4-4.2c-1.4-1.4-2.8-1.4-4.2-1.4c-1.4,0-2.8,1.4-4.2,1.4c-1.4,1.4-1.4,2.8-1.4,4.2s1.4,2.8,1.4,4.2
	c1.4,1.4,2.8,1.4,4.2,1.4C362.2,345.4,363.6,344,364.9,344z M342.8,344c1.4-1.4,1.4-2.8,1.4-4.2s0-2.8-1.4-4.2
	c-1.4-1.4-2.8-2.8-4.2-2.8c-1.4,0-2.8,1.4-2.8,1.4c-1.4,1.4-1.4,2.8-1.4,4.2s0,2.8,1.4,4.2c1.4,1.4,2.8,1.4,2.8,1.4
	C340,345.4,341.4,344,342.8,344z"/>
<path fill="#454545" d="M376,517.4v5.5c0,1.4,0,1.4-1.4,1.4c0,1.4-1.4,1.4-1.4,1.4H290c-1.4,0-1.4,0-2.8-1.4v-1.4v-5.5
	c0-1.4,0-1.4,0-1.4c1.4-1.4,1.4-1.4,2.8-1.4h83.2c1.4,0,1.4,0,1.4,1.4C376,514.6,376,516,376,517.4 M283.1,477.1l-40.2,40.2
	c0,1.4-1.4,1.4-1.4,1.4c-1.4,0-1.4,0-1.4-1.4l-5.5-4.2c0-1.4-1.4-1.4-1.4-2.8l1.4-1.4l34.7-34.7l-34.7-34.7l-1.4-1.4
	c0,0,1.4-1.4,1.4-2.8l5.5-4.2l1.4-1.4c1.4,0,1.4,1.4,1.4,1.4l40.2,40.2c1.4,1.4,1.4,2.8,1.4,4.2S284.5,477.1,283.1,477.1z"/>
<path fill="#454545" d="M333,626.9h-55.5c0-6.9,2.8-13.9,8.3-19.4c5.5-5.5,11.1-8.3,19.4-8.3c6.9,0,13.9,2.8,19.4,8.3
	C330.3,613.1,333,620,333,626.9 M373.3,674.1c1.4,1.4,1.4,1.4,1.4,2.8s-1.4,2.8-1.4,4.2c-1.4,1.4-2.8,1.4-4.2,1.4h-19.4
	c0,9.7-1.4,18-5.5,25l18,18c1.4,1.4,1.4,2.8,1.4,4.2s0,2.8-1.4,2.8c-1.4,2.8-2.8,2.8-4.2,2.8c-1.4,0-2.8,0-4.2-1.4l-16.6-16.6
	c-1.4,0-1.4,1.4-1.4,1.4c-1.4,1.4-1.4,1.4-2.8,2.8c-2.8,0-5.5,1.4-6.9,2.8c-1.4,1.4-4.2,1.4-6.9,2.8c-2.8,1.4-5.5,1.4-8.3,1.4v-77.7
	h-11.1v77.7c-2.8,0-5.5,0-9.7-1.4c-2.8-1.4-5.5-1.4-6.9-2.8c-1.4-1.4-4.2-1.4-5.5-2.8c-1.4-1.4-2.8-1.4-2.8-2.8l-1.4-1.4l-16.6,16.6
	c-1.4,1.4-2.8,1.4-4.2,1.4s-2.8,0-2.8-1.4c-1.4-1.4-1.4-2.8-1.4-4.2s0-2.8,1.4-4.2l18-19.4c-2.8-5.5-5.5-13.9-5.5-23.6h-20.8
	c-1.4,0-2.8-1.4-4.2-1.4c-1.4-1.4-1.4-2.8-1.4-4.2s1.4-2.8,1.4-2.8c1.4-1.4,2.8-1.4,4.2-1.4h19.4v-26.4l-15.3-15.3
	c-1.4-1.4-1.4-2.8-1.4-4.2c0-1.4,1.4-2.8,1.4-2.8c1.4-1.4,2.8-1.4,4.2-1.4s2.8,0,4.2,1.4l15.3,15.3h72.1l15.3-15.3
	c1.4-1.4,2.8-1.4,4.2-1.4c1.4,0,2.8,0,4.2,1.4s1.4,2.8,1.4,2.8c0,1.4-1.4,2.8-1.4,4.2l-15.3,15.3v26.4h19.4
	C370.5,672.7,371.9,672.7,373.3,674.1z"/>
<text transform="matrix(1.03 0 0 1 233.6938 921.0488)" fill="#454545" font-family="'FontAwesome'" font-size="162.6689"></text>
</svg>
