<svg
xmlns="http://www.w3.org/2000/svg"
xmlns:xlink="http://www.w3.org/1999/xlink"
width="16px" height="14px">
    <g stroke="none" stroke-width="1" fill="none" fill-rule="evenodd">
        <path d="M8.021,0 C7.244,0 6.542,0.823 6.542,0.823 C6.542,0.823 0,11.845 0,12.56 C0,13.274 1.119,14 1.833,14 L14.125,14 C14.839,14 15.979,13.215 15.979,12.5 C15.979,11.785 9.437,0.875 9.437,0.875 C9.437,0.875 8.852,0 8.021,0 Z M6.979,4.8383969 C6.979,4.56088752 7.583,4 7.583,4 L8.396,4 C8.396,4 9.016,4.55250356 9.016,4.83001293 C9.016,5.1075223 9,8.94151131 9,8.94151131 L8,9.188 L6.979,8.94318811 L6.979,4.8383969 L6.979,4.8383969 Z M7.97101221,12.5 C6.97101221,12.5 6.70001221,12.312 6.70001221,11.271 C6.70001221,10.209 6.97101221,10 7.97101221,10 C8.95001221,10 9.24101221,10.271 9.24101221,11.292 C9.24101221,12.292 8.99201221,12.5 7.97101221,12.5 L7.97101221,12.5 Z" id="Imported-Layers" fill="#E3B551"></path>
    </g>
</svg>
